# xmcd
#
# Track frame offsets:
# 150
# 10228
# 18299
# 28596
# 44327
# 55354
# 65331
# 74941
# 84177
# 98140
# 109004
# 115034
# 124336
# 132363
# 141731
# 154992
#
# Disc length: 2206 seconds
#
#
# Revision: 1
# Processed by: cddbd v1.5.2PL0 Copyright (c) Steve Scherf et al.
# Submitted via: MfcCDDB 1.28 
#
DISCID=e5089c10
DTITLE=Unknown Artist e5089c10 - Unknown Album e5089c10
DYEAR=2000
DGENRE=Unknown Genre e5089c10
TTITLE0=Track01
TTITLE1=Track02
TTITLE2=Track03
TTITLE3=Track04
TTITLE4=Track05
TTITLE5=Track06
TTITLE6=Track07
TTITLE7=Track08
TTITLE8=Track09
TTITLE9=Track10
TTITLE10=Track11
TTITLE11=Track12
TTITLE12=Track13
TTITLE13=Track14
TTITLE14=Track15
TTITLE15=Track16
EXTD=
EXTT0=
EXTT1=
EXTT2=
EXTT3=
EXTT4=
EXTT5=
EXTT6=
EXTT7=
EXTT8=
EXTT9=
EXTT10=
EXTT11=
EXTT12=
EXTT13=
EXTT14=
EXTT15=
PLAYORDER=
